<svg width="18" height="18" viewBox="0 0 18 18" fill="none" xmlns="http://www.w3.org/2000/svg">
<g opacity="0.5">
<path d="M12.9375 4.5V3.9375C12.9375 2.89321 12.5227 1.89169 11.7842 1.15327C11.0458 0.414843 10.0443 0 9 0C7.95571 0 6.95419 0.414843 6.21577 1.15327C5.47734 1.89169 5.0625 2.89321 5.0625 3.9375V4.5H1.125V15.75C1.125 16.3467 1.36205 16.919 1.78401 17.341C2.20597 17.7629 2.77826 18 3.375 18H14.625C15.2217 18 15.794 17.7629 16.216 17.341C16.6379 16.919 16.875 16.3467 16.875 15.75V4.5H12.9375ZM9 1.125C9.74592 1.125 10.4613 1.42132 10.9887 1.94876C11.5162 2.47621 11.8125 3.19158 11.8125 3.9375V4.5H6.1875V3.9375C6.1875 3.19158 6.48382 2.47621 7.01126 1.94876C7.53871 1.42132 8.25408 1.125 9 1.125ZM9 8.99212C10.872 7.06725 15.5531 10.4355 9 14.7656C2.44688 10.4344 7.128 7.06725 9 8.99212Z" fill="white"/>
</g>
</svg>
