<svg width="38" height="30" viewBox="0 0 58 50" fill="none" xmlns="http://www.w3.org/2000/svg">
<path d="M2.33331 15.3333L5.81065 18.1147C7.02207 19.0836 8.43026 19.7767 9.93703 20.1455C11.4438 20.5143 13.0129 20.5501 14.5349 20.2502C16.0569 19.9504 17.4952 19.3222 18.7495 18.4095C20.0038 17.4967 21.0439 16.3213 21.7973 14.9653L29 2L36.2026 14.9653C36.9563 16.3211 37.9966 17.4962 39.251 18.4087C40.5054 19.3212 41.9437 19.9492 43.4657 20.2487C44.9877 20.5483 46.5567 20.5123 48.0634 20.1433C49.57 19.7742 50.9781 19.081 52.1893 18.112L55.6666 15.3333L50.9893 38.72C50.7851 39.7406 50.3506 40.7011 49.7188 41.5284C49.0871 42.3556 48.2748 43.0276 47.344 43.4933V43.4933C41.6484 46.3413 35.3679 47.8241 29 47.8241C22.632 47.8241 16.3516 46.3413 10.656 43.4933V43.4933C9.72512 43.0276 8.91286 42.3556 8.28113 41.5284C7.6494 40.7011 7.21486 39.7406 7.01065 38.72L2.33331 15.3333Z" stroke="black" stroke-opacity="0.75" stroke-width="3" stroke-linecap="round" stroke-linejoin="round"/>
<path d="M18.3333 34C25.256 37.5547 32.744 37.5547 39.6666 34" stroke="black" stroke-opacity="0.75" stroke-width="3" stroke-linecap="round" stroke-linejoin="round"/>
</svg>
