<svg width="24" height="21" viewBox="0 0 24 21" fill="none" xmlns="http://www.w3.org/2000/svg">
<path d="M2 7L3.304 8.043C3.75828 8.40635 4.28636 8.66624 4.85139 8.80456C5.41643 8.94287 6.00484 8.95628 6.57559 8.84384C7.14634 8.7314 7.6857 8.49583 8.15606 8.15355C8.62642 7.81126 9.01647 7.3705 9.299 6.862L12 2L14.701 6.862C14.9836 7.37042 15.3737 7.81109 15.8441 8.15328C16.3145 8.49546 16.8539 8.73093 17.4247 8.84327C17.9954 8.95561 18.5838 8.94212 19.1488 8.80373C19.7138 8.66534 20.2418 8.40539 20.696 8.042L22 7L20.246 15.77C20.1694 16.1527 20.0065 16.5129 19.7696 16.8231C19.5327 17.1333 19.2281 17.3854 18.879 17.56V17.56C16.7432 18.628 14.388 19.184 12 19.184C9.61202 19.184 7.25684 18.628 5.121 17.56V17.56C4.77193 17.3854 4.46733 17.1333 4.23043 16.8231C3.99353 16.5129 3.83058 16.1527 3.754 15.77L2 7Z" stroke="black" stroke-opacity="0.75" stroke-width="3" stroke-linecap="round" stroke-linejoin="round"/>
<path d="M8 14C10.596 15.333 13.404 15.333 16 14" stroke="black" stroke-opacity="0.75" stroke-width="3" stroke-linecap="round" stroke-linejoin="round"/>
</svg>
