<svg width="256" height="256" viewBox="0 0 256 256" fill="none" xmlns="http://www.w3.org/2000/svg">
<path d="M256 128C256 198.692 198.692 256 128 256C57.3076 256 0 198.692 0 128C0 57.3076 57.3076 0 128 0C198.692 0 256 57.3076 256 128ZM25.6 128C25.6 184.554 71.446 230.4 128 230.4C184.554 230.4 230.4 184.554 230.4 128C230.4 71.446 184.554 25.6 128 25.6C71.446 25.6 25.6 71.446 25.6 128Z" fill="#2B2B2B"/>
<path d="M243.2 128C250.269 128 256.066 133.745 255.361 140.779C253.274 161.58 246.115 181.623 234.428 199.113C220.363 220.162 200.372 236.569 176.983 246.257C153.595 255.945 127.858 258.479 103.028 253.541C78.1989 248.602 55.3915 236.411 37.4903 218.51C19.5892 200.609 7.39839 177.801 2.45948 152.972C-2.47942 128.142 0.055403 102.405 9.74342 79.0165C19.4314 55.6276 35.8375 35.6367 56.887 21.5719C74.377 9.88547 94.42 2.72645 115.221 0.639419C122.255 -0.0663224 128 5.73076 128 12.8C128 19.8692 122.247 25.5175 115.233 26.3989C99.5041 28.3754 84.3873 33.9857 71.1096 42.8575C54.27 54.1094 41.1451 70.1021 33.3947 88.8132C25.6443 107.524 23.6165 128.114 27.5676 147.977C31.5187 167.841 41.2714 186.087 55.5923 200.408C69.9132 214.729 88.1591 224.481 108.023 228.432C127.886 232.384 148.476 230.356 167.187 222.605C185.898 214.855 201.891 201.73 213.142 184.89C222.014 171.613 227.625 156.496 229.601 140.767C230.482 133.753 236.131 128 243.2 128Z" fill="#5081FF"/>
<circle cx="128" cy="128" r="95" fill="#A9C1FF"/>
<path d="M99.424 124.056H98.344V130.752H99.856C106.264 130.824 109.432 133.344 109.432 138.24C109.432 143.136 106.768 145.512 101.512 145.584C96.256 145.656 93.592 142.92 93.52 137.376H83.8C83.224 148.248 89.128 153.72 101.44 153.72C113.824 153.648 119.944 148.32 119.944 137.808C119.944 131.976 117.352 128.16 112.096 126.288C116.344 124.344 118.36 121.032 118.144 116.568C117.928 107.568 112.456 103.176 101.8 103.248C93.016 103.248 87.616 106.704 85.528 113.76C84.592 117.288 85.816 119.016 89.2 118.944H94.384C94.6 113.688 96.976 111.096 101.44 111.096C105.904 111.096 108.064 113.184 107.992 117.288C107.992 122.256 104.824 124.056 99.424 124.056ZM127.343 145.44C125.255 145.44 124.247 146.376 124.247 148.248V153H132.383V145.44H127.343ZM162.451 136.512C162.451 142.704 159.643 145.8 154.027 145.8C149.131 145.8 146.611 143.496 146.539 138.816H136.675C137.251 148.752 143.083 153.72 154.027 153.72C166.555 153.36 172.819 147.456 172.819 136.008C172.819 125.064 167.059 119.52 155.539 119.52C152.731 119.52 149.995 120.384 147.403 122.04L148.771 112.536H170.587V109.152C170.587 105.768 168.931 104.04 165.547 104.04H141.643L138.403 130.536L147.403 131.04C149.059 128.664 151.363 127.512 154.171 127.512C159.715 127.512 162.451 130.536 162.451 136.512Z" fill="#001C53"/>
</svg>
