<svg width="108" height="108" viewBox="0 0 108 60" fill="none" xmlns="http://www.w3.org/2000/svg">
<g filter="url(#filter0_d_14_261)">
<circle cx="54" cy="29" r="24" fill="url(#paint0_linear_14_261)"/>
</g>
<g opacity="0.75">
<path d="M44 25L45.304 26.043C45.7583 26.4064 46.2864 26.6662 46.8514 26.8046C47.4164 26.9429 48.0048 26.9563 48.5756 26.8438C49.1463 26.7314 49.6857 26.4958 50.1561 26.1535C50.6264 25.8113 51.0165 25.3705 51.299 24.862L54 20L56.701 24.862C56.9836 25.3704 57.3737 25.8111 57.8441 26.1533C58.3145 26.4955 58.8539 26.7309 59.4247 26.8433C59.9954 26.9556 60.5838 26.9421 61.1488 26.8037C61.7138 26.6653 62.2418 26.4054 62.696 26.042L64 25L62.246 33.77C62.1694 34.1527 62.0065 34.5129 61.7696 34.8231C61.5327 35.1333 61.2281 35.3854 60.879 35.56V35.56C58.7432 36.628 56.388 37.184 54 37.184C51.612 37.184 49.2568 36.628 47.121 35.56V35.56C46.7719 35.3854 46.4673 35.1333 46.2304 34.8231C45.9935 34.5129 45.8306 34.1527 45.754 33.77L44 25Z" stroke="black" stroke-opacity="0.75" stroke-width="3" stroke-linecap="round" stroke-linejoin="round"/>
<path d="M50 32C52.596 33.333 55.404 33.333 58 32" stroke="black" stroke-opacity="0.75" stroke-width="3" stroke-linecap="round" stroke-linejoin="round"/>
</g>
<defs>
<filter id="filter0_d_14_261" x="0" y="0" width="108" height="108" filterUnits="userSpaceOnUse" color-interpolation-filters="sRGB">
<feFlood flood-opacity="0" result="BackgroundImageFix"/>
<feColorMatrix in="SourceAlpha" type="matrix" values="0 0 0 0 0 0 0 0 0 0 0 0 0 0 0 0 0 0 127 0" result="hardAlpha"/>
<feOffset dy="25"/>
<feGaussianBlur stdDeviation="15"/>
<feComposite in2="hardAlpha" operator="out"/>
<feColorMatrix type="matrix" values="0 0 0 0 0 0 0 0 0 0 0 0 0 0 0 0 0 0 0.15 0"/>
<feBlend mode="normal" in2="BackgroundImageFix" result="effect1_dropShadow_14_261"/>
<feBlend mode="normal" in="SourceGraphic" in2="effect1_dropShadow_14_261" result="shape"/>
</filter>
<linearGradient id="paint0_linear_14_261" x1="54" y1="5" x2="63.5" y2="60.5" gradientUnits="userSpaceOnUse">
<stop stop-color="#FF6868"/>
<stop offset="1" stop-color="#880000"/>
</linearGradient>
</defs>
</svg>
