<svg width="205" height="76" viewBox="0 0 205 55" fill="none" xmlns="http://www.w3.org/2000/svg">
<g filter="url(#filter0_d_11_55)">
<path d="M81.3164 20.1953V23.3242H75.2109V27.0742H81.3164V30.1211H75.2109V37H72V20.1953H81.3164ZM91.4883 34.0938C92.1992 34.0938 92.8555 33.9609 93.457 33.6953C94.0664 33.4297 94.6289 33.0391 95.1445 32.5234C96.1836 31.5078 96.7031 30.2148 96.7031 28.6445C96.7031 27.1367 96.1836 25.8398 95.1445 24.7539C94.1445 23.707 92.8984 23.1836 91.4062 23.1836C89.8984 23.1836 88.6562 23.707 87.6797 24.7539C86.6797 25.7617 86.1797 27.0586 86.1797 28.6445C86.1797 30.4258 86.8281 31.8438 88.125 32.8984C89.1016 33.6953 90.2227 34.0938 91.4883 34.0938ZM91.4883 37C89.1055 37 87.1094 36.1797 85.5 34.5391C83.9062 32.8359 83.1094 30.8711 83.1094 28.6445C83.1094 27.0664 83.4844 25.6445 84.2344 24.3789C84.9531 23.0977 85.9688 22.0781 87.2812 21.3203C88.5859 20.5703 89.9883 20.1953 91.4883 20.1953C93.7227 20.1953 95.6602 21.0156 97.3008 22.6562C98.957 24.3281 99.7852 26.3242 99.7852 28.6445C99.7852 31.0195 98.9844 33.0078 97.3828 34.6094C95.7656 36.2031 93.8008 37 91.4883 37ZM113.93 37H110.32L106.477 31.1172L102.539 37H98.9297L104.59 28.3516L99.2461 20.1953H102.855L108.281 28.3516C109.328 29.9609 110.168 31.2539 110.801 32.2305C111.441 33.207 111.883 33.8789 112.125 34.2461L113.93 37ZM109.605 26.3125L107.73 23.5703L110.004 20.1953H113.625L109.605 26.3125ZM118.945 20.1953V33.9414H125.145V37H115.828V20.1953H118.945ZM133.605 34.0938C134.316 34.0938 134.973 33.9609 135.574 33.6953C136.184 33.4297 136.746 33.0391 137.262 32.5234C138.301 31.5078 138.82 30.2148 138.82 28.6445C138.82 27.1367 138.301 25.8398 137.262 24.7539C136.262 23.707 135.016 23.1836 133.523 23.1836C132.016 23.1836 130.773 23.707 129.797 24.7539C128.797 25.7617 128.297 27.0586 128.297 28.6445C128.297 30.4258 128.945 31.8438 130.242 32.8984C131.219 33.6953 132.34 34.0938 133.605 34.0938ZM133.605 37C131.223 37 129.227 36.1797 127.617 34.5391C126.023 32.8359 125.227 30.8711 125.227 28.6445C125.227 27.0664 125.602 25.6445 126.352 24.3789C127.07 23.0977 128.086 22.0781 129.398 21.3203C130.703 20.5703 132.105 20.1953 133.605 20.1953C135.84 20.1953 137.777 21.0156 139.418 22.6562C141.074 24.3281 141.902 26.3242 141.902 28.6445C141.902 31.0195 141.102 33.0078 139.5 34.6094C137.883 36.2031 135.918 37 133.605 37ZM154.688 20.1953V23.3359H153.164H150.094V37H146.801V23.3359H143.812H142.289V20.1953H154.688ZM168.469 20.1953V23.3359H166.945H163.875V37H160.582V23.3359H157.594H156.07V20.1953H168.469ZM176.496 34.0938C177.207 34.0938 177.863 33.9609 178.465 33.6953C179.074 33.4297 179.637 33.0391 180.152 32.5234C181.191 31.5078 181.711 30.2148 181.711 28.6445C181.711 27.1367 181.191 25.8398 180.152 24.7539C179.152 23.707 177.906 23.1836 176.414 23.1836C174.906 23.1836 173.664 23.707 172.688 24.7539C171.688 25.7617 171.188 27.0586 171.188 28.6445C171.188 30.4258 171.836 31.8438 173.133 32.8984C174.109 33.6953 175.23 34.0938 176.496 34.0938ZM176.496 37C174.113 37 172.117 36.1797 170.508 34.5391C168.914 32.8359 168.117 30.8711 168.117 28.6445C168.117 27.0664 168.492 25.6445 169.242 24.3789C169.961 23.0977 170.977 22.0781 172.289 21.3203C173.594 20.5703 174.996 20.1953 176.496 20.1953C178.73 20.1953 180.668 21.0156 182.309 22.6562C183.965 24.3281 184.793 26.3242 184.793 28.6445C184.793 31.0195 183.992 33.0078 182.391 34.6094C180.773 36.2031 178.809 37 176.496 37Z" fill="#E10083"/>
<g clip-path="url(#clip0_11_55)">
<path d="M32 32.5C37.799 32.5 42.5 27.799 42.5 22C42.5 16.201 37.799 11.5 32 11.5C26.201 11.5 21.5 16.201 21.5 22C21.5 27.799 26.201 32.5 32 32.5Z" stroke="#E10083" stroke-width="3" stroke-linecap="round" stroke-linejoin="round"/>
<path d="M30.5 19H32V25M49.25 24.91C50.6461 25.7145 51.8384 26.8295 52.7344 28.1687C53.6305 29.5079 54.2063 31.0353 54.4173 32.6328C54.6283 34.2302 54.4688 35.8548 53.9512 37.3807C53.4336 38.9066 52.5717 40.293 51.4323 41.4323C50.293 42.5717 48.9066 43.4336 47.3807 43.9512C45.8548 44.4688 44.2302 44.6283 42.6328 44.4173C41.0353 44.2063 39.5079 43.6305 38.1687 42.7344C36.8295 41.8384 35.7145 40.6461 34.91 39.25L49.25 24.91Z" stroke="#E10083" stroke-width="3" stroke-linecap="round" stroke-linejoin="round"/>
<path d="M45.95 31.45L47 32.5L42.8 36.7" stroke="#E10083" stroke-width="3" stroke-linecap="round" stroke-linejoin="round"/>
</g>
</g>
<defs>
<filter id="filter0_d_11_55" x="0" y="0" width="204.793" height="76" filterUnits="userSpaceOnUse" color-interpolation-filters="sRGB">
<feFlood flood-opacity="0" result="BackgroundImageFix"/>
<feColorMatrix in="SourceAlpha" type="matrix" values="0 0 0 0 0 0 0 0 0 0 0 0 0 0 0 0 0 0 127 0" result="hardAlpha"/>
<feOffset dy="10"/>
<feGaussianBlur stdDeviation="10"/>
<feComposite in2="hardAlpha" operator="out"/>
<feColorMatrix type="matrix" values="0 0 0 0 0 0 0 0 0 0 0 0 0 0 0 0 0 0 0.15 0"/>
<feBlend mode="normal" in2="BackgroundImageFix" result="effect1_dropShadow_11_55"/>
<feBlend mode="normal" in="SourceGraphic" in2="effect1_dropShadow_11_55" result="shape"/>
</filter>
<clipPath id="clip0_11_55">
<rect width="36" height="36" fill="white" transform="translate(20 10)"/>
</clipPath>
</defs>
</svg>
