<svg width="22" height="24" viewBox="0 0 22 24" fill="none" xmlns="http://www.w3.org/2000/svg">
<path d="M7.95617 14.1483L1.14869 18.0818C1.07215 18.0095 0.978986 17.8917 0.894042 17.7455C0.808759 17.5987 0.752203 17.4585 0.727325 17.3555L7.55415 13.419L7.55395 13.6285L7.55368 13.9202L7.80748 14.064L7.95617 14.1483ZM3.12902 9.81295L0.940843 11.0787C0.862194 11.0043 0.766913 10.8831 0.680502 10.7339C0.594756 10.5859 0.537708 10.4447 0.512436 10.3408L2.28185 9.32728L3.12902 9.81295ZM7.54095 10.5818L0.727283 6.64624C0.752873 6.54384 0.809083 6.40532 0.893154 6.25996C0.97841 6.11255 1.07197 5.99329 1.14901 5.91997L7.95131 9.84946L7.79733 9.93537L7.54095 10.0784V10.372V10.5818ZM0.936931 12.92L3.12484 14.1856L2.28723 14.6605L0.51544 13.6456C0.541102 13.5433 0.597254 13.405 0.681154 13.26C0.766382 13.1126 0.859908 12.9934 0.936931 12.92ZM12.813 20.7632V19.7839L15.004 21.0513C14.9783 21.1539 14.922 21.2927 14.8379 21.4383C14.7531 21.585 14.6602 21.7039 14.5836 21.7774L12.813 20.7632ZM16.616 20.1294V17.5992L17.464 18.0856V20.1294C17.3623 20.1602 17.2115 20.1823 17.04 20.1823C16.8684 20.1823 16.7176 20.1602 16.616 20.1294ZM14.161 13.4193L20.976 17.3561C20.9512 17.4592 20.8946 17.5995 20.8092 17.7465C20.7242 17.8928 20.631 18.0107 20.5545 18.083L13.7493 14.1523L13.9047 14.0655L14.161 13.9225V13.629V13.4193ZM20.7033 18.1689L20.7 18.167C20.7011 18.1677 20.7022 18.1683 20.7033 18.1689ZM19.4191 14.6887L18.5727 14.2032L20.7653 12.9348C20.8421 13.0075 20.9357 13.1261 21.0209 13.2733C21.1083 13.424 21.166 13.5685 21.1904 13.6741L19.4191 14.6887ZM20.765 11.08L18.5771 9.81437L19.4147 9.33949L21.1865 10.3544C21.1608 10.4567 21.1047 10.595 21.0208 10.7401C20.9355 10.8874 20.842 11.0066 20.765 11.08ZM20.9153 11.1669L20.9123 11.1652C20.9133 11.1658 20.9143 11.1663 20.9153 11.1669ZM13.8934 9.93597L13.7441 9.85137L20.5393 5.91832C20.6158 5.99057 20.709 6.10839 20.7939 6.25455C20.8792 6.40141 20.9357 6.54165 20.9606 6.64467L14.1468 10.5803L14.147 10.3715L14.1472 10.0798L13.8934 9.93597ZM17.449 5.93039L16.601 6.4168V3.88658C16.7026 3.85579 16.8534 3.83376 17.025 3.83376C17.1965 3.83376 17.3473 3.85579 17.449 3.88658V5.93039ZM15.0039 2.94982L12.813 4.21715V3.23782L14.5829 2.22397C14.6598 2.29767 14.753 2.41692 14.8379 2.56394C14.9218 2.70915 14.9781 2.84746 15.0039 2.94982ZM10.5995 8.35826L10.419 8.45891V0.552583C10.5206 0.52179 10.6714 0.499756 10.843 0.499756C11.0145 0.499756 11.1653 0.52179 11.267 0.552583V8.45891L11.0864 8.35826L10.843 8.22259L10.5995 8.35826ZM8.89095 3.25182V4.23115L6.69658 2.96181C6.72101 2.85721 6.77789 2.71432 6.86389 2.5653C6.94736 2.42066 7.03836 2.30473 7.113 2.23339L8.89095 3.25182ZM5.09995 3.88658V6.4168L4.25195 5.93039V3.88658C4.35361 3.85579 4.50443 3.83376 4.67595 3.83376C4.84748 3.83376 4.99829 3.85579 5.09995 3.88658ZM6.69851 21.0521L8.89195 19.7837V20.7632L7.11974 21.7783C7.04263 21.705 6.94892 21.5855 6.86364 21.4377C6.77984 21.2925 6.72392 21.1543 6.69851 21.0521ZM4.25195 18.0856L5.09995 17.5992V20.1294C4.99829 20.1602 4.84748 20.1823 4.67595 20.1823C4.50443 20.1823 4.35361 20.1602 4.25195 20.1294V18.0856ZM10.6145 15.6407L10.858 15.7764L11.1014 15.6407L11.282 15.5401V23.4464C11.1803 23.4772 11.0295 23.4993 10.858 23.4993C10.6864 23.4993 10.5356 23.4772 10.434 23.4464V15.5401L10.6145 15.6407Z" fill="black" stroke="black"/>
</svg>
