<svg width="44" height="48" viewBox="0 0 44 48" fill="none" xmlns="http://www.w3.org/2000/svg">
<path d="M38.446 0C41.2585 0 43.5235 2.274 43.657 4.953V48L38.305 43.4535L35.368 40.782L32.1565 37.9845L33.493 42.3915H5.422C2.617 42.3915 0.3445 40.266 0.3445 37.4385V4.962C0.3445 2.283 2.6185 0.009 5.431 0.009H38.431L38.446 0ZM26.2105 11.367H26.1475L25.741 11.766C29.89 12.969 31.897 14.844 31.897 14.844C29.2255 13.5075 26.8105 12.8355 24.4045 12.5625C22.6705 12.297 20.9275 12.438 19.459 12.5625H19.0525C18.115 12.5625 16.1155 12.969 13.435 14.0385C12.505 14.445 11.9665 14.7105 11.9665 14.7105C11.9665 14.7105 13.966 12.702 18.388 11.6325L18.115 11.367C18.115 11.367 14.7715 11.2335 11.1625 13.9065C11.1625 13.9065 7.5535 20.196 7.5535 27.945C7.5535 27.945 9.553 31.422 15.0385 31.554C15.0385 31.554 15.8425 30.492 16.648 29.5545C13.57 28.617 12.367 26.742 12.367 26.742C12.367 26.742 12.64 26.8755 13.039 27.141H13.156C13.219 27.141 13.2505 27.1725 13.2805 27.204V27.219C13.312 27.2505 13.3435 27.273 13.3975 27.273C14.062 27.546 14.7175 27.8115 15.2575 28.077C16.195 28.476 17.3905 28.881 18.859 29.148C20.719 29.421 22.8505 29.547 25.2805 29.148C26.476 28.875 27.679 28.617 28.882 28.077C29.656 27.678 30.616 27.2805 31.6705 26.601C31.6705 26.601 30.475 28.476 27.2635 29.4135C27.9205 30.3435 28.849 31.413 28.849 31.413C34.3405 31.2885 36.4735 27.8115 36.5905 27.96C36.5905 20.2185 32.9575 13.9215 32.9575 13.9215C29.692 11.4915 26.629 11.3985 26.0905 11.3985L26.2 11.3595L26.2105 11.367ZM26.5465 20.196C27.9535 20.196 29.086 21.3915 29.086 22.86C29.086 24.345 27.946 25.539 26.5465 25.539C25.1395 25.539 24.007 24.3435 24.007 22.875C24.007 21.39 25.147 20.196 26.5465 20.196ZM17.461 20.196C18.859 20.196 19.993 21.3915 19.993 22.86C19.993 24.345 18.853 25.539 17.4535 25.539C16.0465 25.539 14.9065 24.3435 14.9065 22.875C14.9065 21.39 16.0465 20.196 17.4535 20.196H17.461Z" fill="#BFD1FF"/>
</svg>
