<svg width="41" height="42" viewBox="0 0 41 42" fill="none" xmlns="http://www.w3.org/2000/svg">
<path d="M36.5 0H3.5C1.01562 0 -1 2.01562 -1 4.5V37.5C-1 39.9844 1.01562 42 3.5 42H36.5C38.9844 42 41 39.9844 41 37.5V4.5C41 2.01562 38.9844 0 36.5 0ZM31.9156 14.8875C31.9344 15.15 31.9344 15.4219 31.9344 15.6844C31.9344 23.8125 25.7469 33.1781 14.4406 33.1781C10.9531 33.1781 7.71875 32.1656 5 30.4219C5.49687 30.4781 5.975 30.4969 6.48125 30.4969C9.35938 30.4969 12.0031 29.5219 14.1125 27.8719C11.4125 27.8156 9.14375 26.0437 8.36563 23.6062C9.3125 23.7469 10.1656 23.7469 11.1406 23.4938C8.32812 22.9219 6.21875 20.4469 6.21875 17.4562V17.3812C7.03438 17.8406 7.99062 18.1219 8.99375 18.1594C8.1504 17.5984 7.45905 16.8374 6.98138 15.9442C6.50371 15.051 6.25459 14.0535 6.25625 13.0406C6.25625 11.8969 6.55625 10.8469 7.09063 9.9375C10.1188 13.6687 14.6656 16.1063 19.7656 16.3688C18.8937 12.1969 22.0156 8.8125 25.7656 8.8125C27.5375 8.8125 29.1312 9.55312 30.2562 10.7531C31.6437 10.4906 32.975 9.975 34.1562 9.27187C33.6969 10.6969 32.7313 11.8969 31.4563 12.6562C32.6938 12.525 33.8937 12.1781 35 11.7C34.1656 12.9281 33.1156 14.0156 31.9156 14.8875Z" fill="#BFD1FF"/>
</svg>
