<svg width="16" height="16" viewBox="0 0 16 16" fill="none" xmlns="http://www.w3.org/2000/svg">
<path d="M8 1.33333C7.34073 1.33333 6.69626 1.52882 6.1481 1.8951C5.59994 2.26137 5.17269 2.78196 4.9204 3.39105C4.66811 4.00014 4.6021 4.67036 4.73072 5.31696C4.85933 5.96357 5.1768 6.55751 5.64298 7.02368C6.10915 7.48986 6.7031 7.80733 7.3497 7.93595C7.9963 8.06456 8.66652 7.99855 9.27561 7.74626C9.8847 7.49397 10.4053 7.06673 10.7716 6.51856C11.1378 5.9704 11.3333 5.32593 11.3333 4.66666C11.3333 3.78261 10.9821 2.93476 10.357 2.30964C9.7319 1.68452 8.88406 1.33333 8 1.33333ZM8 6.66666C7.60444 6.66666 7.21776 6.54936 6.88886 6.3296C6.55996 6.10984 6.30362 5.79748 6.15224 5.43203C6.00087 5.06658 5.96126 4.66444 6.03843 4.27648C6.1156 3.88852 6.30608 3.53215 6.58579 3.25245C6.86549 2.97274 7.22186 2.78226 7.60982 2.70509C7.99778 2.62792 8.39991 2.66753 8.76537 2.8189C9.13082 2.97028 9.44318 3.22662 9.66294 3.55552C9.8827 3.88442 10 4.2711 10 4.66666C10 5.19709 9.78929 5.7058 9.41421 6.08088C9.03914 6.45595 8.53043 6.66666 8 6.66666ZM14 14V13.3333C14 12.0957 13.5083 10.9087 12.6332 10.0335C11.758 9.15833 10.571 8.66666 9.33333 8.66666H6.66667C5.42899 8.66666 4.242 9.15833 3.36683 10.0335C2.49167 10.9087 2 12.0957 2 13.3333V14H3.33333V13.3333C3.33333 12.4493 3.68452 11.6014 4.30964 10.9763C4.93477 10.3512 5.78261 10 6.66667 10H9.33333C10.2174 10 11.0652 10.3512 11.6904 10.9763C12.3155 11.6014 12.6667 12.4493 12.6667 13.3333V14H14Z" fill="white"/>
</svg>
