<svg width="13" height="24" viewBox="0 0 13 24" fill="none" xmlns="http://www.w3.org/2000/svg">
<path d="M12.8104 15.8705C12.8104 17.2366 12.3613 18.4129 11.463 19.3996C10.5648 20.3862 9.39793 20.9955 7.96251 21.2277V23.5714C7.96251 23.6964 7.92188 23.7991 7.84063 23.8795C7.75938 23.9598 7.65557 24 7.52918 24H5.70105C5.58369 24 5.48213 23.9576 5.39636 23.8728C5.3106 23.7879 5.26772 23.6875 5.26772 23.5714V21.2277C4.67189 21.1473 4.09636 21.0089 3.54116 20.8125C2.98595 20.6161 2.52779 20.4174 2.16668 20.2165C1.80557 20.0156 1.47154 19.8013 1.16459 19.5737C0.857649 19.346 0.647753 19.1786 0.534906 19.0714C0.422059 18.9643 0.343066 18.8839 0.297927 18.8304C0.144455 18.6429 0.135427 18.4598 0.270843 18.2812L1.66564 16.4732C1.72883 16.3839 1.83265 16.3304 1.97709 16.3125C2.11251 16.2946 2.22084 16.3348 2.30209 16.433L2.32918 16.4598C3.34932 17.3438 4.44619 17.9018 5.6198 18.1339C5.95383 18.2054 6.28786 18.2411 6.62188 18.2411C7.35313 18.2411 7.99636 18.0491 8.55157 17.6652C9.10678 17.2812 9.38438 16.7366 9.38438 16.0312C9.38438 15.7812 9.31668 15.5446 9.18126 15.3214C9.04584 15.0982 8.89463 14.9107 8.72761 14.7589C8.5606 14.6071 8.29654 14.4397 7.93543 14.2567C7.57432 14.0737 7.2764 13.9308 7.04168 13.8281C6.80695 13.7254 6.44584 13.5804 5.95834 13.3929C5.60626 13.25 5.32866 13.1384 5.12553 13.058C4.92241 12.9777 4.6448 12.8594 4.29272 12.7031C3.94063 12.5469 3.65852 12.4085 3.44636 12.2879C3.23421 12.1674 2.97918 12.0089 2.68126 11.8125C2.38334 11.6161 2.14185 11.4263 1.95678 11.2433C1.77171 11.0603 1.57536 10.8415 1.36772 10.5871C1.16008 10.3326 0.999837 10.0737 0.886989 9.81027C0.774142 9.54688 0.67935 9.25 0.602614 8.91964C0.525878 8.58929 0.48751 8.24107 0.48751 7.875C0.48751 6.64286 0.929871 5.5625 1.81459 4.63393C2.69932 3.70536 3.85036 3.10714 5.26772 2.83929V0.428571C5.26772 0.3125 5.3106 0.212054 5.39636 0.127232C5.48213 0.0424107 5.58369 0 5.70105 0H7.52918C7.65557 0 7.75938 0.0401786 7.84063 0.120536C7.92188 0.200893 7.96251 0.303571 7.96251 0.428571V2.78571C8.47709 2.83929 8.97588 2.94196 9.45886 3.09375C9.94185 3.24554 10.3346 3.39509 10.637 3.54241C10.9394 3.68973 11.2261 3.85714 11.4969 4.04464C11.7677 4.23214 11.9438 4.36161 12.025 4.43304C12.1063 4.50446 12.174 4.56696 12.2281 4.62054C12.3816 4.78125 12.4042 4.95089 12.2958 5.12946L11.199 7.08482C11.1267 7.21875 11.0229 7.29018 10.8875 7.29911C10.7611 7.32589 10.6392 7.29464 10.5219 7.20536C10.4948 7.17857 10.4293 7.125 10.3255 7.04464C10.2217 6.96429 10.0457 6.84598 9.79741 6.68973C9.54914 6.53348 9.28508 6.39062 9.00522 6.26116C8.72536 6.1317 8.38907 6.01562 7.99636 5.91295C7.60366 5.81027 7.21772 5.75893 6.83855 5.75893C5.98091 5.75893 5.28126 5.95089 4.73959 6.33482C4.19793 6.71875 3.92709 7.21429 3.92709 7.82143C3.92709 8.05357 3.96546 8.26786 4.0422 8.46429C4.11893 8.66071 4.25209 8.84598 4.44168 9.02009C4.63126 9.1942 4.80956 9.34152 4.97657 9.46205C5.14359 9.58259 5.39636 9.72098 5.73491 9.87723C6.07345 10.0335 6.34654 10.154 6.55418 10.2388C6.76182 10.3237 7.07779 10.4464 7.50209 10.6071C7.98057 10.7857 8.34619 10.9263 8.59897 11.029C8.85175 11.1317 9.1948 11.2879 9.62813 11.4978C10.0615 11.7076 10.4023 11.8973 10.6505 12.067C10.8988 12.2366 11.1787 12.4598 11.4901 12.7366C11.8016 13.0134 12.0408 13.2969 12.2078 13.5871C12.3748 13.8772 12.517 14.2188 12.6344 14.6116C12.7517 15.0045 12.8104 15.4241 12.8104 15.8705Z" fill="#5585FF"/>
</svg>
