<svg width="18" height="24" viewBox="0 0 18 24" fill="none" xmlns="http://www.w3.org/2000/svg">
<g clip-path="url(#clip0_14_177)">
<path d="M4.76754 7.76754L4.76747 7.76761C3.79138 8.74409 2.20864 8.74419 1.23199 7.76754C0.255842 6.79139 0.255842 5.20813 1.23199 4.23199C2.20813 3.25584 3.79139 3.25584 4.76754 4.23199C5.74368 5.20813 5.74368 6.79139 4.76754 7.76754ZM16.7676 19.7675L16.7675 19.7675C15.7914 20.7437 14.2081 20.7437 13.232 19.7675C12.2558 18.7914 12.2558 17.2081 13.232 16.232C14.2081 15.2558 15.7914 15.2558 16.7675 16.232C17.7442 17.2086 17.7441 18.7914 16.7676 19.7675ZM14.2023 4.32339L14.2024 4.32325C14.5925 3.93284 15.2255 3.93264 15.6163 4.32339L16.6766 5.38371C17.0674 5.77446 17.0672 6.40745 16.6767 6.79755L16.6766 6.79769L3.79769 19.6766L3.79755 19.6767C3.40745 20.0672 2.77446 20.0674 2.38371 19.6766L1.32339 18.6163L1.32325 18.6161C0.932842 18.226 0.932639 17.5931 1.32339 17.2023L14.2023 4.32339Z" fill="#5585FF" stroke="black"/>
</g>
<defs>
<clipPath id="clip0_14_177">
<rect width="18" height="24" fill="white"/>
</clipPath>
</defs>
</svg>
