<svg width="30" height="21" viewBox="0 0 30 21" fill="none" xmlns="http://www.w3.org/2000/svg">
<path d="M11 15L7.04267 18.9573C6.60223 19.3977 6.04111 19.6975 5.43027 19.819C4.81942 19.9405 4.18627 19.8781 3.61087 19.6398C3.03547 19.4015 2.54364 18.9979 2.19758 18.4801C1.85152 17.9623 1.66677 17.3535 1.66667 16.7307V15L3.476 5.95467C3.71766 4.74564 4.37075 3.65767 5.32416 2.87589C6.27756 2.09411 7.47238 1.6668 8.70533 1.66667H21.2947C22.5276 1.6668 23.7224 2.09411 24.6758 2.87589C25.6293 3.65767 26.2823 4.74564 26.524 5.95467L28.3333 15V16.7293C28.3332 17.3521 28.1485 17.9609 27.8024 18.4788C27.4564 18.9966 26.9645 19.4001 26.3891 19.6385C25.8137 19.8768 25.1806 19.9392 24.5697 19.8177C23.9589 19.6962 23.3978 19.3963 22.9573 18.956L19 15H11Z" stroke="white" stroke-width="2" stroke-linecap="round" stroke-linejoin="round"/>
<path d="M11 1.66667L12.3333 4.33334H17.6667L19 1.66667" stroke="white" stroke-width="2" stroke-linecap="round" stroke-linejoin="round"/>
</svg>
