<svg width="24" height="24" viewBox="0 0 24 24" fill="none" xmlns="http://www.w3.org/2000/svg">
<path d="M7.99999 10.76H7.41999C6.6285 10.7314 5.83957 10.8658 5.10216 11.1548C4.36476 11.4438 3.69462 11.8812 3.13333 12.44L2.97333 12.6267V18.1467H5.69333V15.0133L6.05999 14.6L6.22666 14.4067C7.09461 13.515 8.17518 12.8589 9.36666 12.5C8.77013 12.0461 8.29965 11.4471 7.99999 10.76Z" fill="#5585FF"/>
<path d="M20.8934 12.42C20.3321 11.8612 19.6619 11.4238 18.9245 11.1348C18.1871 10.8458 17.3982 10.7114 16.6067 10.74C16.3639 10.7407 16.1214 10.754 15.88 10.78C15.5748 11.4246 15.1171 11.9852 14.5467 12.4133C15.8187 12.7652 16.9709 13.4566 17.88 14.4133L18.0467 14.6L18.4067 15.0133V18.1533H21.0334V12.6067L20.8934 12.42Z" fill="#5585FF"/>
<path d="M7.39998 9.46H7.60664C7.51062 8.63549 7.65529 7.80082 8.0232 7.05673C8.3911 6.31263 8.96652 5.69093 9.67998 5.26667C9.42135 4.87157 9.06455 4.5504 8.64451 4.33463C8.22448 4.11886 7.7556 4.01587 7.2838 4.03575C6.812 4.05563 6.35345 4.1977 5.95306 4.44805C5.55266 4.6984 5.22414 5.04844 4.99968 5.4639C4.77521 5.87936 4.66249 6.34599 4.67256 6.8181C4.68262 7.29021 4.81512 7.75162 5.05708 8.15713C5.29904 8.56265 5.64218 8.89838 6.05287 9.13144C6.46357 9.3645 6.92776 9.4869 7.39998 9.48667V9.46Z" fill="#5585FF"/>
<path d="M16.2867 8.96C16.2948 9.11323 16.2948 9.26677 16.2867 9.42C16.4146 9.44028 16.5438 9.45142 16.6734 9.45333H16.8C17.2702 9.42826 17.7258 9.28189 18.1226 9.02845C18.5194 8.77502 18.8438 8.42316 19.0642 8.00714C19.2846 7.59112 19.3936 7.12511 19.3804 6.65449C19.3673 6.18386 19.2325 5.72465 18.9893 5.32157C18.746 4.91849 18.4025 4.58527 17.9922 4.35435C17.5819 4.12344 17.1188 4.00269 16.648 4.00388C16.1772 4.00506 15.7147 4.12813 15.3056 4.36111C14.8964 4.59409 14.5546 4.92903 14.3134 5.33333C14.9167 5.72729 15.4129 6.26487 15.7573 6.89785C16.1017 7.53082 16.2836 8.2394 16.2867 8.96Z" fill="#5585FF"/>
<path d="M11.9134 11.9467C13.5592 11.9467 14.8933 10.6125 14.8933 8.96667C14.8933 7.32086 13.5592 5.98667 11.9134 5.98667C10.2675 5.98667 8.93335 7.32086 8.93335 8.96667C8.93335 10.6125 10.2675 11.9467 11.9134 11.9467Z" fill="#5585FF"/>
<path d="M12.0734 13.5333C11.2027 13.4982 10.334 13.6395 9.51938 13.9489C8.70479 14.2582 7.9612 14.7291 7.33335 15.3333L7.16669 15.52V19.74C7.16929 19.8775 7.19895 20.0131 7.25396 20.1391C7.30898 20.265 7.38828 20.379 7.48734 20.4743C7.58639 20.5696 7.70326 20.6445 7.83126 20.6947C7.95926 20.7449 8.0959 20.7693 8.23335 20.7667H15.8934C16.0308 20.7693 16.1674 20.7449 16.2954 20.6947C16.4235 20.6445 16.5403 20.5696 16.6394 20.4743C16.7384 20.379 16.8177 20.265 16.8727 20.1391C16.9278 20.0131 16.9574 19.8775 16.96 19.74V15.5333L16.8 15.3333C16.1762 14.7273 15.4352 14.255 14.6225 13.9455C13.8097 13.636 12.9423 13.4957 12.0734 13.5333Z" fill="#5585FF"/>
</svg>
