<svg width="24" height="24" viewBox="0 0 24 24" fill="none" xmlns="http://www.w3.org/2000/svg">
<path d="M12 2.39999C11.3635 2.39999 10.7531 2.65285 10.303 3.10294C9.85288 3.55302 9.60002 4.16347 9.60002 4.79999V19.2C9.60002 19.8365 9.85288 20.447 10.303 20.897C10.7531 21.3471 11.3635 21.6 12 21.6C12.6365 21.6 13.247 21.3471 13.6971 20.897C14.1472 20.447 14.4 19.8365 14.4 19.2V4.79999C14.4 4.16347 14.1472 3.55302 13.6971 3.10294C13.247 2.65285 12.6365 2.39999 12 2.39999ZM4.80002 12C4.1635 12 3.55306 12.2529 3.10297 12.7029C2.65288 13.153 2.40002 13.7635 2.40002 14.4V19.2C2.40002 19.8365 2.65288 20.447 3.10297 20.897C3.55306 21.3471 4.1635 21.6 4.80002 21.6C5.43654 21.6 6.04699 21.3471 6.49708 20.897C6.94717 20.447 7.20002 19.8365 7.20002 19.2V14.4C7.20002 13.7635 6.94717 13.153 6.49708 12.7029C6.04699 12.2529 5.43654 12 4.80002 12ZM19.2 7.19999C18.5635 7.19999 17.9531 7.45285 17.503 7.90294C17.0529 8.35302 16.8 8.96347 16.8 9.59999V19.2C16.8 19.8365 17.0529 20.447 17.503 20.897C17.9531 21.3471 18.5635 21.6 19.2 21.6C19.8365 21.6 20.447 21.3471 20.8971 20.897C21.3472 20.447 21.6 19.8365 21.6 19.2V9.59999C21.6 8.96347 21.3472 8.35302 20.8971 7.90294C20.447 7.45285 19.8365 7.19999 19.2 7.19999Z" fill="#5585FF"/>
</svg>
