<svg width="39" height="34" viewBox="0 0 59 64" fill="none" xmlns="http://www.w3.org/2000/svg">
<path d="M23.5612 37.7217L3.75784 49.1645L3.75539 49.1659L3.75517 49.1661C3.75268 49.1678 3.7328 49.1819 3.65808 49.1601C3.56995 49.1344 3.44241 49.0667 3.28304 48.935C2.96576 48.6727 2.61983 48.2382 2.33034 47.7399C2.04089 47.2416 1.83429 46.7251 1.76301 46.318C1.72721 46.1136 1.73116 45.9679 1.75251 45.877C1.76808 45.8107 1.78703 45.7925 1.79435 45.7875L1.797 45.786L23.5612 37.7217ZM23.5612 37.7217L21.8975 36.7791L21.6437 36.6353L21.644 36.3436L21.6459 34.3407L1.79734 45.7858L23.5612 37.7217ZM35.6408 26.2781L55.4105 14.8355L55.4126 14.8342C55.4137 14.8336 55.432 14.8173 55.5099 14.84C55.598 14.8657 55.7256 14.9334 55.885 15.0652C56.2022 15.3274 56.5482 15.7619 56.8377 16.2602C57.1271 16.7585 57.3337 17.275 57.405 17.6821C57.4408 17.8865 57.4368 18.0322 57.4155 18.1231C57.3999 18.1895 57.3809 18.2076 57.3736 18.2126L57.371 18.2141L35.6408 26.2781ZM35.6408 26.2781L37.3051 27.221L37.5589 27.3648L37.5587 27.6565L37.5568 29.6587L57.3707 18.2143L35.6408 26.2781ZM3.18964 33.5049L10.6766 37.8357L6.76395 40.0539L1.22452 36.8809L1.22455 36.8808L1.21772 36.877C1.21427 36.8751 1.21254 36.8739 1.20896 36.8687C1.20407 36.8616 1.19293 36.8422 1.18325 36.8018C1.16249 36.715 1.15806 36.5721 1.19385 36.3681C1.26503 35.9624 1.47185 35.4441 1.76182 34.9427C2.05179 34.4414 2.39836 34.0028 2.71637 33.7376C2.87617 33.6043 3.00393 33.5357 3.092 33.5096C3.13324 33.4974 3.1576 33.4969 3.16845 33.4978C3.17715 33.4984 3.18136 33.5 3.18666 33.5031L3.18964 33.5049ZM56.0157 30.4952L48.5288 26.1644L52.4414 23.9462L57.9808 27.1193L57.9808 27.1193L57.9876 27.1231C57.9911 27.125 57.9928 27.1262 57.9964 27.1314C58.0013 27.1385 58.0124 27.1579 58.0221 27.1984C58.0429 27.2851 58.0473 27.428 58.0115 27.632C57.9403 28.0377 57.7335 28.556 57.4435 29.0574C57.1535 29.5588 56.807 29.9973 56.489 30.2625C56.3292 30.3958 56.2014 30.4644 56.1133 30.4905C56.0721 30.5027 56.0477 30.5032 56.0369 30.5024C56.0342 30.5022 56.032 30.5019 56.03 30.5015C56.0255 30.5006 56.0223 30.4991 56.0187 30.497L56.0157 30.4952ZM19.6582 5.00838L19.6661 5.0133L19.6741 5.01792L25.2093 8.18854V12.7279L17.7192 8.39515C17.7191 8.39511 17.719 8.39506 17.7188 8.39498L17.717 8.39392L17.717 8.39396C17.7103 8.38979 17.6899 8.37254 17.6733 8.30206C17.6514 8.20975 17.6473 8.0623 17.6828 7.85607C17.7535 7.44543 17.9598 6.92492 18.2487 6.42431C18.5379 5.92328 18.883 5.48862 19.1983 5.22931C19.3568 5.09903 19.482 5.03444 19.5665 5.01113C19.635 4.99223 19.6532 5.00488 19.6576 5.00796C19.6578 5.00813 19.658 5.00828 19.6582 5.00838ZM39.5365 4.98059L39.5365 4.98062L39.542 4.97738C39.5458 4.97515 39.5485 4.97397 39.5559 4.97343C39.5656 4.97272 39.589 4.97309 39.6298 4.98535C39.7169 5.01156 39.8439 5.08031 40.0033 5.21398C40.3203 5.47985 40.6663 5.91885 40.9561 6.42024C41.2459 6.92169 41.4529 7.43977 41.5245 7.84513C41.5605 8.04904 41.5562 8.19165 41.5356 8.27799C41.5261 8.31822 41.5151 8.33735 41.5104 8.34409C41.5071 8.34891 41.5057 8.34982 41.5026 8.35151L41.5026 8.35142L41.4936 8.35658L34.0013 12.6905V8.1512L39.5365 4.98059ZM41.4936 55.6462L41.4936 55.6463L41.5019 55.6508C41.505 55.6526 41.5066 55.6536 41.5101 55.6587C41.5149 55.6657 41.526 55.6851 41.5356 55.7256C41.5562 55.8124 41.5605 55.9554 41.5245 56.1596C41.4529 56.5656 41.2458 57.084 40.9561 57.5856C40.6663 58.0871 40.3204 58.5259 40.0036 58.7912C39.8443 58.9246 39.7175 58.9929 39.6308 59.0187C39.5903 59.0308 39.5671 59.0311 39.5576 59.0304C39.5503 59.0298 39.5475 59.0287 39.5435 59.0263L39.5435 59.0262L39.5365 59.0222L34.0013 55.8516V51.3122L41.4936 55.6462ZM19.6768 59.0222L19.6732 59.0243C19.6728 59.0245 19.6552 59.041 19.5772 59.0178C19.4889 58.9915 19.361 58.9227 19.2013 58.7893C18.8835 58.5238 18.5374 58.0851 18.2481 57.5838C17.9587 57.0825 17.7528 56.5645 17.6823 56.1593C17.6469 55.9555 17.6516 55.813 17.6725 55.7267C17.6823 55.6864 17.6934 55.6671 17.6983 55.6601C17.7018 55.655 17.7036 55.6537 17.7072 55.6517L17.7073 55.6518L17.717 55.6462L25.212 51.3121V55.8516L19.6768 59.0222ZM29.3779 40.9808L29.6213 41.1165L29.8648 40.9808L31.5853 40.0218V62.9681C31.5853 62.973 31.5884 62.9996 31.5282 63.0572C31.4603 63.122 31.3363 63.1994 31.1412 63.2719C30.7525 63.4163 30.2002 63.4981 29.6213 63.4981C29.0425 63.4981 28.4901 63.4163 28.1015 63.2719C27.9064 63.1994 27.7823 63.122 27.7145 63.0572C27.6543 62.9996 27.6573 62.973 27.6573 62.9681V40.0218L29.3779 40.9808ZM37.3398 36.7806L37.596 36.6375V36.3441V34.341L57.3543 45.7548L57.3561 45.7566L57.4118 45.7891L57.4122 45.7893C57.4155 45.791 57.4382 45.8024 57.4564 45.8795C57.4778 45.9701 57.4818 46.1156 57.4461 46.3201C57.3749 46.7272 57.1683 47.244 56.8787 47.7426C56.589 48.2412 56.2428 48.676 55.9254 48.9383C55.7659 49.0701 55.6384 49.1377 55.5504 49.1633C55.4758 49.185 55.4561 49.1709 55.4536 49.1691L55.4534 49.169L55.4501 49.1671L35.6444 37.7274L37.3398 36.7806ZM21.6093 29.6618L1.79141 18.2151L1.79146 18.215L1.78306 18.2104C1.77961 18.2085 1.77787 18.2072 1.77429 18.202C1.76941 18.195 1.75826 18.1755 1.74858 18.1351C1.72782 18.0484 1.72339 17.9055 1.75919 17.7014C1.83036 17.2957 2.03718 16.7774 2.32716 16.276C2.61712 15.7747 2.9637 15.3361 3.28171 15.0709C3.4415 14.9376 3.56927 14.8691 3.65733 14.843C3.69858 14.8307 3.72293 14.8303 3.73379 14.8311C3.74248 14.8318 3.74669 14.8333 3.752 14.8365L3.75523 14.8383L23.558 26.2778L21.8657 27.2221L21.6093 27.3651V27.6587V29.6618ZM29.3379 23.0166L27.6173 23.9756V1.02939L27.6173 1.02871C27.6172 1.02234 27.6166 0.995557 27.6745 0.940275C27.7423 0.875471 27.8664 0.79808 28.0615 0.72558C28.4501 0.581172 29.0025 0.49939 29.5813 0.49939C30.1602 0.49939 30.7125 0.581172 31.1012 0.72558C31.2963 0.79808 31.4203 0.875471 31.4882 0.940275C31.546 0.995557 31.5455 1.02234 31.5453 1.02871L31.5453 1.02939V23.9756L29.8248 23.0166L29.5813 22.881L29.3379 23.0166ZM3.18964 30.4979L3.18745 30.4992C3.18546 30.4995 3.18316 30.4997 3.18043 30.4999C3.16795 30.5005 3.14169 30.4992 3.09861 30.4857C3.00729 30.4571 2.87744 30.3854 2.71698 30.2505C2.39755 29.982 2.05053 29.5425 1.76034 29.0415C1.47007 28.5403 1.26244 28.0219 1.18993 27.6135C1.1535 27.4083 1.15686 27.262 1.17783 27.1706C1.18769 27.1276 1.19957 27.105 1.20618 27.095C1.21102 27.0877 1.2146 27.0844 1.21882 27.0817L6.7519 23.9123L10.6807 26.1647L3.18964 30.4979ZM56.0157 33.5449L56.0165 33.5444C56.0171 33.544 56.0354 33.5276 56.1139 33.5508C56.2023 33.5769 56.3302 33.6452 56.4897 33.7775C56.8074 34.041 57.1537 34.4771 57.4437 34.9777C57.7336 35.4781 57.9413 35.9982 58.0138 36.4105C58.0907 36.8485 57.9895 36.9538 57.9756 36.9658L52.4508 40.1304L48.5244 37.8782L56.0157 33.5449ZM11.172 54.1227V47.7457L15.1 45.4926V54.1227L15.1 54.1234C15.1001 54.1298 15.1007 54.1566 15.0428 54.2118C14.975 54.2766 14.851 54.354 14.6558 54.4265C14.2672 54.5709 13.7148 54.6527 13.136 54.6527C12.5572 54.6527 12.0048 54.5709 11.6162 54.4265C11.421 54.354 11.297 54.2766 11.2292 54.2118C11.1713 54.1566 11.1719 54.1298 11.172 54.1234L11.172 54.1227ZM44.1027 9.92006L44.1027 9.91938C44.1025 9.91301 44.102 9.88622 44.1598 9.83094C44.2277 9.76614 44.3517 9.68875 44.5468 9.61625C44.9355 9.47184 45.4878 9.39006 46.0667 9.39006C46.6455 9.39006 47.1979 9.47184 47.5865 9.61625C47.7816 9.68875 47.9057 9.76614 47.9735 9.83094C48.0314 9.88622 48.0308 9.91301 48.0307 9.91938L48.0307 9.92006V16.2971L44.1027 18.5502V9.92006ZM11.172 9.92006C11.172 9.91987 11.172 9.91964 11.172 9.91938C11.1719 9.91301 11.1713 9.88622 11.2292 9.83094C11.297 9.76614 11.421 9.68875 11.6162 9.61625C12.0048 9.47184 12.5572 9.39006 13.136 9.39006C13.7148 9.39006 14.2672 9.47184 14.6558 9.61625C14.851 9.68875 14.975 9.76614 15.0428 9.83094C15.1007 9.88622 15.1001 9.91301 15.1 9.91938C15.1 9.91964 15.1 9.91987 15.1 9.92006V18.5502L11.172 16.2971V9.92006ZM48.0707 54.1227C48.0707 54.1276 48.0737 54.1543 48.0135 54.2118C47.9457 54.2766 47.8216 54.354 47.6265 54.4265C47.2379 54.5709 46.6855 54.6527 46.1067 54.6527C45.5278 54.6527 44.9755 54.5709 44.5868 54.4265C44.3917 54.354 44.2677 54.2766 44.1998 54.2118C44.142 54.1566 44.1425 54.1298 44.1427 54.1234L44.1427 54.1227V45.4926L48.0707 47.7457V54.1227Z" fill="black" stroke="black"/>
</svg>
