<svg xmlns="http://www.w3.org/2000/svg" xmlns:xlink="http://www.w3.org/1999/xlink" viewBox="0 0 48 48"><defs><style>.cls-1{fill:url(#linear-gradient);}.cls-2{opacity:0.75;}.cls-3{fill:none;stroke:#000;stroke-linecap:round;stroke-linejoin:round;stroke-opacity:0.75;stroke-width:3px;}</style><linearGradient id="linear-gradient" x1="20.01" y1="75.32" x2="29.51" y2="19.82" gradientTransform="matrix(1, 0, 0, -1, 0, 76)" gradientUnits="userSpaceOnUse"><stop offset="0" stop-color="#ff6868"/><stop offset="1" stop-color="#800"/></linearGradient></defs><g id="Layer_2" data-name="Layer 2"><g id="Layer_1-2" data-name="Layer 1"><circle class="cls-1" cx="24" cy="24" r="24"/><g class="cls-2"><path class="cls-3" d="M14,20l1.3,1a4,4,0,0,0,4.86.11,3.92,3.92,0,0,0,1.14-1.29L24,15l2.7,4.86a3.92,3.92,0,0,0,1.14,1.29A4,4,0,0,0,32.7,21L34,20l-1.75,8.77a2.58,2.58,0,0,1-.48,1.05,2.54,2.54,0,0,1-.89.74h0a15.42,15.42,0,0,1-13.76,0h0a2.54,2.54,0,0,1-.89-.74,2.58,2.58,0,0,1-.48-1.05Z"/><path class="cls-3" d="M20,27a8.52,8.52,0,0,0,8,0"/></g></g></g></svg>