<svg width="108" height="108" viewBox="0 0 108 60" fill="none" xmlns="http://www.w3.org/2000/svg">
<g filter="url(#filter0_d_14_262)">
<circle cx="54" cy="29" r="24" fill="url(#paint0_linear_14_262)"/>
</g>
<g opacity="0.75" clip-path="url(#clip0_14_262)">
<path d="M50.9562 31.1483L44.1488 35.0818C44.0722 35.0095 43.979 34.8917 43.8941 34.7455C43.8088 34.5987 43.7523 34.4585 43.7274 34.3555L50.5542 30.419L50.554 30.6285L50.5537 30.9202L50.8075 31.064L50.9562 31.1483ZM46.1291 26.813L43.9409 28.0787C43.8623 28.0043 43.767 27.8831 43.6806 27.7339C43.5948 27.5859 43.5378 27.4447 43.5125 27.3408L45.2819 26.3273L46.1291 26.813ZM50.541 27.5818L43.7273 23.6462C43.7529 23.5438 43.8091 23.4053 43.8932 23.26C43.9785 23.1125 44.072 22.9933 44.1491 22.92L50.9514 26.8495L50.7974 26.9354L50.541 27.0784V27.372V27.5818ZM43.937 29.92L46.1249 31.1856L45.2873 31.6605L43.5155 30.6456C43.5412 30.5433 43.5973 30.405 43.6812 30.26C43.7664 30.1126 43.86 29.9934 43.937 29.92ZM55.813 37.7632V36.7839L58.0041 38.0513C57.9784 38.1539 57.9221 38.2927 57.8379 38.4383C57.7532 38.585 57.6603 38.7039 57.5837 38.7774L55.813 37.7632ZM59.616 37.1294V34.5992L60.464 35.0856V37.1294C60.3624 37.1602 60.2115 37.1823 60.04 37.1823C59.8685 37.1823 59.7177 37.1602 59.616 37.1294ZM57.161 30.4193L63.9761 34.3561C63.9513 34.4592 63.8947 34.5995 63.8093 34.7465C63.7243 34.8928 63.6311 35.0107 63.5545 35.083L56.7494 31.1523L56.9048 31.0655L57.161 30.9225V30.629V30.4193ZM63.7034 35.1689L63.7001 35.167C63.7012 35.1677 63.7023 35.1683 63.7034 35.1689ZM62.4192 31.6887L61.5727 31.2032L63.7654 29.9348C63.8422 30.0075 63.9357 30.1261 64.021 30.2733C64.1083 30.424 64.166 30.5685 64.1904 30.6741L62.4192 31.6887ZM63.765 28.08L61.5771 26.8144L62.4147 26.3395L64.1865 27.3544C64.1609 27.4567 64.1047 27.595 64.0208 27.7401C63.9356 27.8874 63.8421 28.0066 63.765 28.08ZM63.9154 28.1669L63.9124 28.1652C63.9134 28.1658 63.9144 28.1663 63.9154 28.1669ZM56.8935 26.936L56.7442 26.8514L63.5394 22.9183C63.6159 22.9906 63.709 23.1084 63.7939 23.2545C63.8792 23.4014 63.9358 23.5417 63.9607 23.6447L57.1468 27.5803L57.147 27.3715L57.1473 27.0798L56.8935 26.936ZM60.449 22.9304L59.601 23.4168V20.8866C59.7027 20.8558 59.8535 20.8338 60.025 20.8338C60.1965 20.8338 60.3474 20.8558 60.449 20.8866V22.9304ZM58.0039 19.9498L55.813 21.2172V20.2378L57.583 19.224C57.6598 19.2977 57.753 19.4169 57.838 19.5639C57.9219 19.7092 57.9782 19.8475 58.0039 19.9498ZM53.5996 25.3583L53.419 25.4589V17.5526C53.5207 17.5218 53.6715 17.4998 53.843 17.4998C54.0145 17.4998 54.1654 17.5218 54.267 17.5526V25.4589L54.0864 25.3583L53.843 25.2226L53.5996 25.3583ZM51.891 20.2518V21.2312L49.6966 19.9618C49.7211 19.8572 49.778 19.7143 49.8639 19.5653C49.9474 19.4207 50.0384 19.3047 50.1131 19.2334L51.891 20.2518ZM48.1 20.8866V23.4168L47.252 22.9304V20.8866C47.3537 20.8558 47.5045 20.8338 47.676 20.8338C47.8475 20.8338 47.9984 20.8558 48.1 20.8866ZM49.6986 38.0521L51.892 36.7837V37.7632L50.1198 38.7783C50.0427 38.705 49.949 38.5855 49.8637 38.4377C49.7799 38.2925 49.724 38.1543 49.6986 38.0521ZM47.252 35.0856L48.1 34.5992V37.1294C47.9984 37.1602 47.8475 37.1823 47.676 37.1823C47.5045 37.1823 47.3537 37.1602 47.252 37.1294V35.0856ZM53.6146 32.6407L53.858 32.7764L54.1014 32.6407L54.282 32.5401V40.4464C54.1804 40.4772 54.0295 40.4993 53.858 40.4993C53.6865 40.4993 53.5357 40.4772 53.434 40.4464V32.5401L53.6146 32.6407Z" fill="black" stroke="black"/>
</g>
<defs>
<filter id="filter0_d_14_262" x="0" y="0" width="108" height="108" filterUnits="userSpaceOnUse" color-interpolation-filters="sRGB">
<feFlood flood-opacity="0" result="BackgroundImageFix"/>
<feColorMatrix in="SourceAlpha" type="matrix" values="0 0 0 0 0 0 0 0 0 0 0 0 0 0 0 0 0 0 127 0" result="hardAlpha"/>
<feOffset dy="25"/>
<feGaussianBlur stdDeviation="15"/>
<feComposite in2="hardAlpha" operator="out"/>
<feColorMatrix type="matrix" values="0 0 0 0 0 0 0 0 0 0 0 0 0 0 0 0 0 0 0.15 0"/>
<feBlend mode="normal" in2="BackgroundImageFix" result="effect1_dropShadow_14_262"/>
<feBlend mode="normal" in="SourceGraphic" in2="effect1_dropShadow_14_262" result="shape"/>
</filter>
<linearGradient id="paint0_linear_14_262" x1="45" y1="5" x2="63.5" y2="58" gradientUnits="userSpaceOnUse">
<stop stop-color="#6197FF"/>
<stop offset="1" stop-color="#002773"/>
</linearGradient>
<clipPath id="clip0_14_262">
<rect width="22" height="24" fill="white" transform="translate(43 17)"/>
</clipPath>
</defs>
</svg>
