<svg xmlns="http://www.w3.org/2000/svg" xmlns:xlink="http://www.w3.org/1999/xlink" viewBox="0 0 48 48"><defs><style>.cls-1{fill:none;}.cls-2{fill:url(#linear-gradient);}.cls-3{clip-path:url(#clip-path);}.cls-4{opacity:0.75;}.cls-5{stroke:#000;}</style><linearGradient id="linear-gradient" x1="15.56" y1="76.19" x2="34.06" y2="23.19" gradientTransform="matrix(1, 0, 0, -1, 0, 76)" gradientUnits="userSpaceOnUse"><stop offset="0" stop-color="#6197ff"/><stop offset="1" stop-color="#002773"/></linearGradient><clipPath id="clip-path"><rect class="cls-1" x="13" y="12" width="22" height="24"/></clipPath></defs><g id="Layer_2" data-name="Layer 2"><g id="Layer_1-2" data-name="Layer 1"><circle class="cls-2" cx="24" cy="24" r="24"/><g class="cls-3"><g class="cls-4"><path class="cls-5" d="M21,26.15l-6.81,3.93a1.65,1.65,0,0,1-.26-.33,1.6,1.6,0,0,1-.16-.39l6.82-3.94v.5l.26.14Zm-4.83-4.34-2.19,1.27a1.86,1.86,0,0,1-.26-.35,1.54,1.54,0,0,1-.17-.39l1.77-1Zm4.41.77-6.81-3.93a1.46,1.46,0,0,1,.16-.39,1.49,1.49,0,0,1,.26-.34L21,21.85l-.15.09-.26.14v.5Zm-6.6,2.34,2.18,1.27-.83.47-1.77-1a1.46,1.46,0,0,1,.16-.39A1.49,1.49,0,0,1,13.94,24.92Zm11.87,7.84v-1L28,33.05a1.6,1.6,0,0,1-.16.39,2.13,2.13,0,0,1-.26.34Zm3.81-.63V29.6l.84.49v2a1.79,1.79,0,0,1-.84,0Zm-2.46-6.71L34,29.36a2.31,2.31,0,0,1-.17.39,1.65,1.65,0,0,1-.26.33l-6.8-3.93.15-.08.26-.15v-.5Zm5.26,1.27-.85-.49,2.2-1.27a2.14,2.14,0,0,1,.25.34,1.39,1.39,0,0,1,.17.4Zm1.34-3.61-2.18-1.27.83-.47,1.78,1a2,2,0,0,1-.17.39A1.25,1.25,0,0,1,33.76,23.08Zm-6.87-1.14-.15-.09,6.8-3.93a1.77,1.77,0,0,1,.42.72l-6.81,3.94v-.5Zm3.56-4-.85.49V15.89a1.52,1.52,0,0,1,.43-.06,1.5,1.5,0,0,1,.42.06ZM28,15l-2.19,1.27v-1l1.77-1a2.13,2.13,0,0,1,.26.34A1.6,1.6,0,0,1,28,15Zm-4.4,5.41-.18.1V12.55a1.55,1.55,0,0,1,.42-.05,1.63,1.63,0,0,1,.43.05v7.91l-.18-.1-.25-.14Zm-1.71-5.11v1L19.7,15a1.46,1.46,0,0,1,.16-.39,1.87,1.87,0,0,1,.25-.34Zm-3.79.64v2.53l-.85-.49v-2a1.52,1.52,0,0,1,.43-.06A1.5,1.5,0,0,1,18.1,15.89Zm1.6,17.16,2.19-1.27v1l-1.77,1a1.49,1.49,0,0,1-.26-.34A1.6,1.6,0,0,1,19.7,33.05Zm-2.45-3,.85-.49v2.53a1.55,1.55,0,0,1-.42,0,1.58,1.58,0,0,1-.43,0Zm6.36-2.45.25.14.24-.14.18-.1v7.91a1.55,1.55,0,0,1-.42,0,1.69,1.69,0,0,1-.43,0V27.54Z"/></g></g></g></g></svg>