<svg width="12" height="18" viewBox="0 0 12 18" fill="none" xmlns="http://www.w3.org/2000/svg">
<path fill-rule="evenodd" clip-rule="evenodd" d="M0.712518 5.187C0.286518 5.187 -0.0584818 4.8315 0.00751821 4.4115C0.420018 1.86 2.36402 0 5.73752 0C9.11252 0 11.388 2.04 11.388 4.8225C11.388 6.8385 10.3905 8.2545 8.70302 9.282C7.05302 10.2705 6.58202 10.959 6.58202 12.297V12.342C6.58202 12.5409 6.503 12.7317 6.36235 12.8723C6.2217 13.013 6.03093 13.092 5.83202 13.092H4.67702C4.4794 13.092 4.28976 13.014 4.14932 12.875C4.00888 12.736 3.92899 12.5471 3.92702 12.3495L3.92252 12.0495C3.85802 10.218 4.63802 9.048 6.39002 7.9815C7.93502 7.0335 8.48552 6.279 8.48552 4.9395C8.48552 3.471 7.34852 2.3925 5.59652 2.3925C4.08302 2.3925 3.03152 3.186 2.68952 4.4955C2.59052 4.8765 2.27252 5.187 1.87952 5.187H0.714018H0.712518ZM5.24402 18C6.17702 18 6.88652 17.289 6.88652 16.365C6.88652 15.438 6.17702 14.727 5.24402 14.727C4.33502 14.727 3.61352 15.438 3.61352 16.3635C3.61352 17.289 4.33502 18 5.24402 18Z" fill="#BFD1FF"/>
</svg>
